<svg xmlns="http://www.w3.org/2000/svg" xmlns:xlink="http://www.w3.org/1999/xlink" width="500" zoomAndPan="magnify" viewBox="0 0 375 374.999991" height="500" preserveAspectRatio="xMidYMid meet" version="1.0"><defs><clipPath id="2dcddabc13"><path d="M 114.5625 132.734375 L 231 132.734375 L 231 329 L 114.5625 329 Z M 114.5625 132.734375 " clip-rule="nonzero"/></clipPath><clipPath id="b46cad328b"><path d="M 192 132.734375 L 360.5625 132.734375 L 360.5625 329 L 192 329 Z M 192 132.734375 " clip-rule="nonzero"/></clipPath><clipPath id="e7cfbec0c2"><path d="M 4.96875 4.472656 L 29 4.472656 L 29 43.472656 L 4.96875 43.472656 Z M 4.96875 4.472656 " clip-rule="nonzero"/></clipPath><clipPath id="647bffa8f7"><path d="M 20 4.472656 L 54.46875 4.472656 L 54.46875 43.472656 L 20 43.472656 Z M 20 4.472656 " clip-rule="nonzero"/></clipPath></defs><rect x="-37.5" width="450" fill="#ffffff" y="-37.499999" height="449.999989" fill-opacity="1"/><rect x="-37.5" width="450" fill="#402978" y="-37.499999" height="449.999989" fill-opacity="1"/><g clip-path="url(#2dcddabc13)"><path fill="#8c52ff" d="M 188.871094 319.308594 L 188.871094 328.933594 L 114.5625 328.933594 L 114.5625 132.84375 L 188.871094 132.84375 L 188.871094 142.179688 L 204.429688 132.84375 L 230.808594 132.84375 L 132.738281 230.878906 L 230.808594 328.933594 L 204.746094 328.933594 Z M 188.871094 319.308594 " fill-opacity="1" fill-rule="nonzero"/></g><g clip-path="url(#b46cad328b)"><path fill="#ffffff" d="M 253.289062 132.84375 L 262.335938 132.84375 C 288.511719 132.84375 313.117188 143.050781 331.621094 161.566406 C 350.128906 180.078125 360.324219 204.707031 360.324219 230.886719 C 360.324219 257.066406 350.132812 281.691406 331.621094 300.207031 C 313.113281 318.71875 288.507812 328.9375 262.335938 328.9375 L 253.679688 328.9375 L 193.03125 268.167969 L 262.335938 268.167969 C 282.921875 268.167969 299.675781 251.425781 299.675781 230.832031 C 299.675781 210.234375 282.929688 193.492188 262.335938 193.492188 L 192.621094 193.492188 Z M 253.289062 132.84375 " fill-opacity="1" fill-rule="nonzero"/></g><g clip-path="url(#e7cfbec0c2)"><path fill="#8c52ff" d="M 19.855469 41.851562 L 19.855469 43.78125 L 4.96875 43.78125 L 4.96875 4.492188 L 19.855469 4.492188 L 19.855469 6.363281 L 22.976562 4.492188 L 28.261719 4.492188 L 8.609375 24.136719 L 28.261719 43.78125 L 23.039062 43.78125 Z M 19.855469 41.851562 " fill-opacity="1" fill-rule="nonzero"/></g><g clip-path="url(#647bffa8f7)"><path fill="#ffffff" d="M 32.765625 4.492188 L 34.578125 4.492188 C 39.820312 4.492188 44.75 6.539062 48.460938 10.246094 C 52.167969 13.957031 54.210938 18.890625 54.210938 24.136719 C 54.210938 29.382812 52.167969 34.316406 48.460938 38.027344 C 44.75 41.734375 39.820312 43.78125 34.578125 43.78125 L 32.84375 43.78125 L 20.691406 31.605469 L 34.578125 31.605469 C 38.703125 31.605469 42.058594 28.253906 42.058594 24.125 C 42.058594 20 38.703125 16.644531 34.578125 16.644531 L 20.609375 16.644531 Z M 32.765625 4.492188 " fill-opacity="1" fill-rule="nonzero"/></g></svg>