<svg xmlns="http://www.w3.org/2000/svg" xmlns:xlink="http://www.w3.org/1999/xlink" width="500" zoomAndPan="magnify" viewBox="0 0 375 374.999991" height="500" preserveAspectRatio="xMidYMid meet" version="1.0"><defs><g/><clipPath id="3a0f98a823"><path d="M 150.542969 95.410156 L 186 95.410156 L 186 154.660156 L 150.542969 154.660156 Z M 150.542969 95.410156 " clip-rule="nonzero"/></clipPath><clipPath id="aef60e681f"><path d="M 174 95.410156 L 224.792969 95.410156 L 224.792969 154.660156 L 174 154.660156 Z M 174 95.410156 " clip-rule="nonzero"/></clipPath></defs><rect x="-37.5" width="450" fill="#ffffff" y="-37.499999" height="449.999989" fill-opacity="1"/><rect x="-37.5" width="450" fill="#402978" y="-37.499999" height="449.999989" fill-opacity="1"/><g fill="#8c52ff" fill-opacity="1"><g transform="translate(92.732041, 184.338988)"><g><path d="M 24.53125 -1.125 C 24.601562 -1.007812 24.640625 -0.863281 24.640625 -0.6875 C 24.640625 -0.519531 24.566406 -0.363281 24.421875 -0.21875 C 24.273438 -0.0703125 24.097656 0 23.890625 0 L 16.125 0 C 15.457031 0 14.988281 -0.257812 14.71875 -0.78125 L 10.5625 -8.21875 L 10.5625 -0.921875 C 10.5625 -0.671875 10.46875 -0.453125 10.28125 -0.265625 C 10.101562 -0.0859375 9.890625 0 9.640625 0 L 3.140625 0 C 2.890625 0 2.671875 -0.0859375 2.484375 -0.265625 C 2.304688 -0.453125 2.21875 -0.671875 2.21875 -0.921875 L 2.21875 -22.9375 C 2.21875 -23.1875 2.304688 -23.398438 2.484375 -23.578125 C 2.671875 -23.765625 2.890625 -23.859375 3.140625 -23.859375 L 9.640625 -23.859375 C 9.890625 -23.859375 10.101562 -23.765625 10.28125 -23.578125 C 10.46875 -23.398438 10.5625 -23.1875 10.5625 -22.9375 L 10.5625 -16.1875 L 14.421875 -23.109375 C 14.671875 -23.609375 15.125 -23.859375 15.78125 -23.859375 L 23.3125 -23.859375 C 23.507812 -23.859375 23.679688 -23.78125 23.828125 -23.625 C 23.984375 -23.476562 24.0625 -23.320312 24.0625 -23.15625 C 24.0625 -22.988281 24.023438 -22.847656 23.953125 -22.734375 L 17.828125 -12.4375 Z M 24.53125 -1.125 "/></g></g></g><g fill="#8c52ff" fill-opacity="1"><g transform="translate(117.708178, 184.338988)"><g><path d="M 4.640625 -21.671875 C 6.722656 -23.359375 9.476562 -24.203125 12.90625 -24.203125 C 16.34375 -24.203125 19.097656 -23.351562 21.171875 -21.65625 C 23.253906 -19.96875 24.296875 -17.585938 24.296875 -14.515625 L 24.296875 -9.203125 C 24.296875 -6.085938 23.265625 -3.71875 21.203125 -2.09375 C 19.148438 -0.46875 16.382812 0.34375 12.90625 0.34375 C 9.4375 0.34375 6.671875 -0.46875 4.609375 -2.09375 C 2.554688 -3.71875 1.53125 -6.085938 1.53125 -9.203125 L 1.53125 -14.515625 C 1.53125 -17.609375 2.566406 -19.992188 4.640625 -21.671875 Z M 11.0625 -6.984375 C 11.519531 -6.523438 12.132812 -6.296875 12.90625 -6.296875 C 13.6875 -6.296875 14.300781 -6.523438 14.75 -6.984375 C 15.207031 -7.441406 15.4375 -8.132812 15.4375 -9.0625 L 15.4375 -14.796875 C 15.4375 -15.703125 15.207031 -16.382812 14.75 -16.84375 C 14.300781 -17.3125 13.6875 -17.546875 12.90625 -17.546875 C 12.132812 -17.546875 11.519531 -17.3125 11.0625 -16.84375 C 10.613281 -16.382812 10.390625 -15.703125 10.390625 -14.796875 L 10.390625 -9.0625 C 10.390625 -8.132812 10.613281 -7.441406 11.0625 -6.984375 Z M 11.0625 -6.984375 "/></g></g></g><g fill="#8c52ff" fill-opacity="1"><g transform="translate(143.536156, 184.338988)"><g><path d="M 21.328125 -23.859375 L 26.71875 -23.859375 C 26.96875 -23.859375 27.179688 -23.765625 27.359375 -23.578125 C 27.546875 -23.398438 27.640625 -23.1875 27.640625 -22.9375 L 27.640625 -0.921875 C 27.640625 -0.671875 27.546875 -0.453125 27.359375 -0.265625 C 27.179688 -0.0859375 26.96875 0 26.71875 0 L 20.546875 0 C 20.296875 0 20.078125 -0.0859375 19.890625 -0.265625 C 19.710938 -0.453125 19.625 -0.671875 19.625 -0.921875 L 19.625 -10.25 L 17.375 -6.578125 C 17.007812 -6.003906 16.59375 -5.71875 16.125 -5.71875 L 13.734375 -5.71875 C 13.253906 -5.71875 12.832031 -6.003906 12.46875 -6.578125 L 10.21875 -10.25 L 10.21875 -0.921875 C 10.21875 -0.671875 10.125 -0.453125 9.9375 -0.265625 C 9.757812 -0.0859375 9.546875 0 9.296875 0 L 3.140625 0 C 2.890625 0 2.671875 -0.0859375 2.484375 -0.265625 C 2.304688 -0.453125 2.21875 -0.671875 2.21875 -0.921875 L 2.21875 -22.9375 C 2.21875 -23.1875 2.304688 -23.398438 2.484375 -23.578125 C 2.671875 -23.765625 2.890625 -23.859375 3.140625 -23.859375 L 8.515625 -23.859375 C 9.148438 -23.859375 9.640625 -23.550781 9.984375 -22.9375 L 14.921875 -14.75 L 19.875 -22.9375 C 20.207031 -23.550781 20.691406 -23.859375 21.328125 -23.859375 Z M 21.328125 -23.859375 "/></g></g></g><g fill="#8c52ff" fill-opacity="1"><g transform="translate(173.384846, 184.338988)"><g><path d="M 9.671875 -23.859375 L 17.078125 -23.859375 C 17.890625 -23.859375 18.398438 -23.484375 18.609375 -22.734375 L 26.203125 -0.984375 C 26.222656 -0.921875 26.234375 -0.8125 26.234375 -0.65625 C 26.234375 -0.507812 26.160156 -0.363281 26.015625 -0.21875 C 25.867188 -0.0703125 25.691406 0 25.484375 0 L 19.1875 0 C 18.5 0 18.054688 -0.285156 17.859375 -0.859375 L 17.03125 -3.09375 L 9.71875 -3.09375 L 8.890625 -0.859375 C 8.691406 -0.285156 8.25 0 7.5625 0 L 1.265625 0 C 1.054688 0 0.878906 -0.0703125 0.734375 -0.21875 C 0.585938 -0.363281 0.515625 -0.507812 0.515625 -0.65625 C 0.515625 -0.8125 0.523438 -0.921875 0.546875 -0.984375 L 8.140625 -22.734375 C 8.347656 -23.484375 8.859375 -23.859375 9.671875 -23.859375 Z M 11.453125 -9.75 L 15.296875 -9.75 L 13.359375 -16.078125 Z M 11.453125 -9.75 "/></g></g></g><g fill="#8c52ff" fill-opacity="1"><g transform="translate(200.132822, 184.338988)"><g><path d="M 16.59375 -23.859375 L 22.765625 -23.859375 C 23.015625 -23.859375 23.226562 -23.765625 23.40625 -23.578125 C 23.59375 -23.398438 23.6875 -23.1875 23.6875 -22.9375 L 23.6875 -0.921875 C 23.6875 -0.671875 23.59375 -0.453125 23.40625 -0.265625 C 23.226562 -0.0859375 23.015625 0 22.765625 0 L 17.375 0 C 16.789062 0 16.328125 -0.257812 15.984375 -0.78125 L 10.21875 -9.46875 L 10.21875 -0.921875 C 10.21875 -0.671875 10.125 -0.453125 9.9375 -0.265625 C 9.757812 -0.0859375 9.546875 0 9.296875 0 L 3.140625 0 C 2.890625 0 2.671875 -0.0859375 2.484375 -0.265625 C 2.304688 -0.453125 2.21875 -0.671875 2.21875 -0.921875 L 2.21875 -22.9375 C 2.21875 -23.1875 2.304688 -23.398438 2.484375 -23.578125 C 2.671875 -23.765625 2.890625 -23.859375 3.140625 -23.859375 L 8.515625 -23.859375 C 9.148438 -23.859375 9.617188 -23.597656 9.921875 -23.078125 L 15.671875 -13.625 L 15.671875 -22.9375 C 15.671875 -23.1875 15.757812 -23.398438 15.9375 -23.578125 C 16.125 -23.765625 16.34375 -23.859375 16.59375 -23.859375 Z M 16.59375 -23.859375 "/></g></g></g><g fill="#8c52ff" fill-opacity="1"><g transform="translate(226.028946, 184.338988)"><g><path d="M 3.140625 -23.859375 L 12.953125 -23.859375 C 16.265625 -23.859375 18.992188 -23.03125 21.140625 -21.375 C 23.285156 -19.726562 24.359375 -17.429688 24.359375 -14.484375 L 24.359375 -9.40625 C 24.359375 -6.3125 23.3125 -3.96875 21.21875 -2.375 C 19.132812 -0.789062 16.390625 0 12.984375 0 L 3.140625 0 C 2.890625 0 2.671875 -0.0859375 2.484375 -0.265625 C 2.304688 -0.453125 2.21875 -0.671875 2.21875 -0.921875 L 2.21875 -22.9375 C 2.21875 -23.1875 2.304688 -23.398438 2.484375 -23.578125 C 2.671875 -23.765625 2.890625 -23.859375 3.140625 -23.859375 Z M 10.734375 -17.203125 L 10.734375 -6.640625 L 12.953125 -6.640625 C 13.722656 -6.640625 14.335938 -6.875 14.796875 -7.34375 C 15.265625 -7.8125 15.5 -8.5 15.5 -9.40625 L 15.5 -14.484375 C 15.5 -16.296875 14.648438 -17.203125 12.953125 -17.203125 Z M 10.734375 -17.203125 "/></g></g></g><g fill="#8c52ff" fill-opacity="1"><g transform="translate(251.92507, 184.338988)"><g><path d="M 9.671875 -23.859375 L 17.078125 -23.859375 C 17.890625 -23.859375 18.398438 -23.484375 18.609375 -22.734375 L 26.203125 -0.984375 C 26.222656 -0.921875 26.234375 -0.8125 26.234375 -0.65625 C 26.234375 -0.507812 26.160156 -0.363281 26.015625 -0.21875 C 25.867188 -0.0703125 25.691406 0 25.484375 0 L 19.1875 0 C 18.5 0 18.054688 -0.285156 17.859375 -0.859375 L 17.03125 -3.09375 L 9.71875 -3.09375 L 8.890625 -0.859375 C 8.691406 -0.285156 8.25 0 7.5625 0 L 1.265625 0 C 1.054688 0 0.878906 -0.0703125 0.734375 -0.21875 C 0.585938 -0.363281 0.515625 -0.507812 0.515625 -0.65625 C 0.515625 -0.8125 0.523438 -0.921875 0.546875 -0.984375 L 8.140625 -22.734375 C 8.347656 -23.484375 8.859375 -23.859375 9.671875 -23.859375 Z M 11.453125 -9.75 L 15.296875 -9.75 L 13.359375 -16.078125 Z M 11.453125 -9.75 "/></g></g></g><g fill="#ffffff" fill-opacity="1"><g transform="translate(141.72691, 204.999978)"><g><path d="M 1.84375 -14 L 7.59375 -14 C 9.539062 -14 11.144531 -13.515625 12.40625 -12.546875 C 13.664062 -11.578125 14.296875 -10.226562 14.296875 -8.5 L 14.296875 -5.515625 C 14.296875 -3.703125 13.679688 -2.328125 12.453125 -1.390625 C 11.234375 -0.460938 9.625 0 7.625 0 L 1.84375 0 C 1.695312 0 1.566406 -0.0507812 1.453125 -0.15625 C 1.347656 -0.257812 1.296875 -0.390625 1.296875 -0.546875 L 1.296875 -13.453125 C 1.296875 -13.609375 1.347656 -13.738281 1.453125 -13.84375 C 1.566406 -13.945312 1.695312 -14 1.84375 -14 Z M 6.296875 -10.09375 L 6.296875 -3.90625 L 7.59375 -3.90625 C 8.050781 -3.90625 8.414062 -4.039062 8.6875 -4.3125 C 8.957031 -4.582031 9.09375 -4.984375 9.09375 -5.515625 L 9.09375 -8.5 C 9.09375 -9.5625 8.59375 -10.09375 7.59375 -10.09375 Z M 6.296875 -10.09375 "/></g></g></g><g fill="#ffffff" fill-opacity="1"><g transform="translate(156.92092, 204.999978)"><g><path d="M 5.921875 0 L 1.84375 0 C 1.695312 0 1.566406 -0.0507812 1.453125 -0.15625 C 1.347656 -0.257812 1.296875 -0.390625 1.296875 -0.546875 L 1.296875 -13.453125 C 1.296875 -13.609375 1.347656 -13.738281 1.453125 -13.84375 C 1.566406 -13.945312 1.695312 -14 1.84375 -14 L 5.921875 -14 C 6.066406 -14 6.191406 -13.945312 6.296875 -13.84375 C 6.398438 -13.738281 6.453125 -13.609375 6.453125 -13.453125 L 6.453125 -0.546875 C 6.453125 -0.390625 6.398438 -0.257812 6.296875 -0.15625 C 6.191406 -0.0507812 6.066406 0 5.921875 0 Z M 5.921875 0 "/></g></g></g><g fill="#ffffff" fill-opacity="1"><g transform="translate(164.677862, 204.999978)"><g><path d="M 8.484375 -8.4375 L 13.984375 -8.4375 C 14.128906 -8.4375 14.253906 -8.382812 14.359375 -8.28125 C 14.460938 -8.175781 14.515625 -8.050781 14.515625 -7.90625 L 14.515625 -5.296875 C 14.515625 -3.535156 13.890625 -2.175781 12.640625 -1.21875 C 11.390625 -0.269531 9.71875 0.203125 7.625 0.203125 C 5.539062 0.203125 3.898438 -0.257812 2.703125 -1.1875 C 1.503906 -2.113281 0.90625 -3.503906 0.90625 -5.359375 L 0.90625 -8.71875 C 0.90625 -10.488281 1.515625 -11.84375 2.734375 -12.78125 C 3.960938 -13.726562 5.597656 -14.203125 7.640625 -14.203125 C 9.691406 -14.203125 11.347656 -13.769531 12.609375 -12.90625 C 13.878906 -12.050781 14.515625 -10.992188 14.515625 -9.734375 C 14.515625 -9.617188 14.472656 -9.515625 14.390625 -9.421875 C 14.304688 -9.335938 14.203125 -9.296875 14.078125 -9.296875 L 9.65625 -9.296875 C 9.394531 -9.296875 9.203125 -9.367188 9.078125 -9.515625 C 8.816406 -9.867188 8.617188 -10.070312 8.484375 -10.125 C 8.171875 -10.238281 7.890625 -10.296875 7.640625 -10.296875 C 6.609375 -10.296875 6.09375 -9.796875 6.09375 -8.796875 L 6.09375 -5.40625 C 6.09375 -4.269531 6.640625 -3.703125 7.734375 -3.703125 C 8.859375 -3.703125 9.421875 -4.179688 9.421875 -5.140625 L 8.484375 -5.140625 C 8.335938 -5.140625 8.207031 -5.191406 8.09375 -5.296875 C 7.988281 -5.398438 7.9375 -5.53125 7.9375 -5.6875 L 7.9375 -7.90625 C 7.9375 -8.050781 7.988281 -8.175781 8.09375 -8.28125 C 8.207031 -8.382812 8.335938 -8.4375 8.484375 -8.4375 Z M 8.484375 -8.4375 "/></g></g></g><g fill="#ffffff" fill-opacity="1"><g transform="translate(180.091783, 204.999978)"><g><path d="M 5.921875 0 L 1.84375 0 C 1.695312 0 1.566406 -0.0507812 1.453125 -0.15625 C 1.347656 -0.257812 1.296875 -0.390625 1.296875 -0.546875 L 1.296875 -13.453125 C 1.296875 -13.609375 1.347656 -13.738281 1.453125 -13.84375 C 1.566406 -13.945312 1.695312 -14 1.84375 -14 L 5.921875 -14 C 6.066406 -14 6.191406 -13.945312 6.296875 -13.84375 C 6.398438 -13.738281 6.453125 -13.609375 6.453125 -13.453125 L 6.453125 -0.546875 C 6.453125 -0.390625 6.398438 -0.257812 6.296875 -0.15625 C 6.191406 -0.0507812 6.066406 0 5.921875 0 Z M 5.921875 0 "/></g></g></g><g fill="#ffffff" fill-opacity="1"><g transform="translate(187.848725, 204.999978)"><g><path d="M 1.140625 -14 L 12.859375 -14 C 13.003906 -14 13.128906 -13.945312 13.234375 -13.84375 C 13.347656 -13.738281 13.40625 -13.609375 13.40625 -13.453125 L 13.40625 -10.234375 C 13.40625 -10.085938 13.347656 -9.960938 13.234375 -9.859375 C 13.128906 -9.753906 13.003906 -9.703125 12.859375 -9.703125 L 9.546875 -9.703125 L 9.546875 -0.546875 C 9.546875 -0.390625 9.488281 -0.257812 9.375 -0.15625 C 9.269531 -0.0507812 9.144531 0 9 0 L 5 0 C 4.851562 0 4.722656 -0.0507812 4.609375 -0.15625 C 4.503906 -0.257812 4.453125 -0.390625 4.453125 -0.546875 L 4.453125 -9.703125 L 1.140625 -9.703125 C 0.992188 -9.703125 0.863281 -9.753906 0.75 -9.859375 C 0.644531 -9.960938 0.59375 -10.085938 0.59375 -10.234375 L 0.59375 -13.453125 C 0.59375 -13.609375 0.644531 -13.738281 0.75 -13.84375 C 0.863281 -13.945312 0.992188 -14 1.140625 -14 Z M 1.140625 -14 "/></g></g></g><g fill="#ffffff" fill-opacity="1"><g transform="translate(201.8432, 204.999978)"><g><path d="M 5.6875 -14 L 10.015625 -14 C 10.492188 -14 10.796875 -13.78125 10.921875 -13.34375 L 15.375 -0.578125 C 15.394531 -0.535156 15.40625 -0.472656 15.40625 -0.390625 C 15.40625 -0.304688 15.359375 -0.21875 15.265625 -0.125 C 15.179688 -0.0390625 15.078125 0 14.953125 0 L 11.265625 0 C 10.859375 0 10.597656 -0.164062 10.484375 -0.5 L 10 -1.8125 L 5.703125 -1.8125 L 5.21875 -0.5 C 5.101562 -0.164062 4.84375 0 4.4375 0 L 0.734375 0 C 0.617188 0 0.515625 -0.0390625 0.421875 -0.125 C 0.335938 -0.21875 0.296875 -0.304688 0.296875 -0.390625 C 0.296875 -0.472656 0.300781 -0.535156 0.3125 -0.578125 L 4.78125 -13.34375 C 4.894531 -13.78125 5.195312 -14 5.6875 -14 Z M 6.71875 -5.71875 L 8.984375 -5.71875 L 7.84375 -9.4375 Z M 6.71875 -5.71875 "/></g></g></g><g fill="#ffffff" fill-opacity="1"><g transform="translate(217.537009, 204.999978)"><g><path d="M 6.375 -4.09375 L 11.921875 -4.09375 C 12.066406 -4.09375 12.191406 -4.039062 12.296875 -3.9375 C 12.398438 -3.832031 12.453125 -3.707031 12.453125 -3.5625 L 12.453125 -0.546875 C 12.453125 -0.390625 12.398438 -0.257812 12.296875 -0.15625 C 12.191406 -0.0507812 12.066406 0 11.921875 0 L 1.84375 0 C 1.695312 0 1.566406 -0.0507812 1.453125 -0.15625 C 1.347656 -0.257812 1.296875 -0.390625 1.296875 -0.546875 L 1.296875 -13.453125 C 1.296875 -13.609375 1.347656 -13.738281 1.453125 -13.84375 C 1.566406 -13.945312 1.695312 -14 1.84375 -14 L 5.84375 -14 C 5.988281 -14 6.113281 -13.945312 6.21875 -13.84375 C 6.320312 -13.738281 6.375 -13.609375 6.375 -13.453125 Z M 6.375 -4.09375 "/></g></g></g><g clip-path="url(#3a0f98a823)"><path fill="#8c52ff" d="M 172.890625 151.515625 L 172.890625 154.40625 L 150.542969 154.40625 L 150.542969 95.4375 L 172.890625 95.4375 L 172.890625 98.246094 L 177.570312 95.4375 L 185.503906 95.4375 L 156.007812 124.921875 L 185.503906 154.40625 L 177.664062 154.40625 Z M 172.890625 151.515625 " fill-opacity="1" fill-rule="nonzero"/></g><g clip-path="url(#aef60e681f)"><path fill="#ffffff" d="M 192.261719 95.4375 L 194.984375 95.4375 C 202.855469 95.4375 210.253906 98.507812 215.820312 104.074219 C 221.386719 109.644531 224.453125 117.050781 224.453125 124.921875 C 224.453125 132.796875 221.386719 140.199219 215.820312 145.769531 C 210.253906 151.335938 202.855469 154.410156 194.984375 154.410156 L 192.378906 154.410156 L 174.140625 136.132812 L 194.984375 136.132812 C 201.175781 136.132812 206.214844 131.101562 206.214844 124.90625 C 206.214844 118.710938 201.175781 113.675781 194.984375 113.675781 L 174.019531 113.675781 Z M 192.261719 95.4375 " fill-opacity="1" fill-rule="nonzero"/></g></svg>